<?xml version="1.0" standalone="no"?>
<!DOCTYPE svg PUBLIC "-//W3C//DTD SVG 20010904//EN"
 "http://www.w3.org/TR/2001/REC-SVG-20010904/DTD/svg10.dtd">
<svg version="1.0" xmlns="http://www.w3.org/2000/svg"
 width="648.000000pt" height="757.000000pt" viewBox="0 0 648.000000 757.000000"
 preserveAspectRatio="xMidYMid meet">

<g transform="translate(0.000000,757.000000) scale(0.100000,-0.100000)"
fill="#000000" stroke="none">
<path d="M102 7503 c0 -38 -1 -216 -1 -398 -2 -224 1 -331 8 -333 6 -2 10 -22
10 -45 l-2 -42 -6 35 c-10 55 -18 16 -20 -100 -3 -138 -8 -170 -31 -170 -13 0
-17 -7 -16 -24 0 -13 4 -22 7 -20 17 10 22 -64 26 -363 3 -213 9 -323 15 -323
7 0 9 -47 4 -142 -5 -127 -23 -418 -25 -426 -2 -7 -57 4 -63 13 -4 6 -8 -6 -8
-25 0 -34 2 -36 37 -38 21 -1 76 -8 123 -14 47 -6 104 -12 127 -13 23 0 48 -7
57 -14 10 -9 46 -12 113 -11 54 1 112 -2 128 -7 41 -12 342 2 360 17 15 12
107 16 125 5 16 -10 12 -72 -6 -89 -8 -9 -26 -16 -39 -16 -49 0 -53 -16 -50
-192 2 -90 1 -155 -2 -145 -9 33 -18 17 -15 -28 3 -36 1 -45 -12 -45 -9 0 -16
-5 -16 -11 0 -5 -4 -8 -9 -5 -14 9 -31 -51 -31 -107 0 -66 -35 -110 -94 -117
-40 -5 -41 -6 -50 -53 -7 -33 -14 -46 -23 -43 -7 3 -13 1 -13 -4 0 -6 5 -10
10 -10 6 0 10 -5 10 -11 0 -6 -7 -9 -14 -6 -10 4 -13 1 -9 -9 3 -8 1 -20 -5
-27 -6 -7 -12 -32 -14 -56 -4 -54 -24 -64 -36 -19 l-10 33 -7 -30 c-12 -53
-30 -68 -72 -63 -26 4 -43 1 -52 -9 -8 -8 -20 -11 -30 -7 -9 4 -41 6 -71 5
-35 -1 -50 2 -41 7 35 24 -55 19 -150 -8 -41 -12 -49 -12 -63 2 -9 9 -16 24
-16 32 0 13 -6 15 -28 9 -15 -5 -46 -7 -70 -7 l-42 1 0 -711 c1 -600 3 -714
15 -730 12 -16 12 -22 0 -47 -19 -35 -19 -45 -1 -30 11 9 12 6 8 -14 -2 -14
-8 -25 -13 -25 -5 0 -8 -128 -8 -285 l0 -285 23 0 c41 0 88 -12 91 -24 28
-103 24 -97 58 -94 18 2 31 8 30 15 -3 13 63 30 74 19 9 -9 -18 -36 -36 -36
-25 0 -67 -48 -63 -72 3 -16 -1 -19 -17 -14 -12 3 -30 8 -40 11 -13 4 -17 12
-14 26 5 19 -10 38 -29 39 -13 0 -9 -35 7 -56 8 -10 15 -36 15 -57 0 -38 -12
-48 -85 -72 -19 -6 -19 -7 3 -19 20 -11 21 -13 6 -28 -23 -22 0 -55 44 -63 45
-8 35 -17 -22 -17 l-46 0 0 -619 c0 -418 3 -618 10 -614 6 4 8 10 5 15 -3 5
-1 11 5 15 15 9 12 -12 -6 -50 -11 -25 -15 -57 -12 -122 l3 -88 86 -3 c83 -3
87 -2 93 20 l7 23 11 -22 11 -23 551 0 c303 0 546 4 539 8 -22 14 23 53 69 59
l43 6 -29 -31 c-16 -17 -38 -33 -50 -35 -11 -2 187 -5 441 -6 432 -1 462 0
466 17 4 16 5 16 6 0 1 -15 10 -18 50 -18 43 0 50 3 54 23 l4 22 8 -22 7 -23
329 0 328 0 7 35 c3 19 10 35 14 35 4 0 14 15 21 33 12 31 12 31 17 8 2 -15
-2 -29 -10 -35 -8 -6 -15 -18 -15 -26 0 -8 -4 -23 -8 -32 -6 -16 -1 -18 38
-18 35 0 47 4 50 18 4 16 5 16 6 -1 1 -15 11 -17 81 -16 61 1 80 4 80 15 0 7
18 52 40 100 170 369 538 592 854 519 78 -18 96 -25 96 -35 0 -14 -78 -96
-118 -124 -49 -33 -113 -51 -124 -33 -4 7 -10 38 -14 70 -4 32 -9 55 -13 52
-3 -4 -15 -36 -26 -73 -14 -44 -26 -67 -36 -67 -25 0 -222 -102 -252 -130
l-28 -27 -60 36 c-32 19 -59 31 -59 26 0 -5 11 -34 25 -64 14 -30 25 -58 25
-61 0 -4 -14 -26 -30 -50 -29 -43 -70 -127 -70 -146 0 -27 23 -1 51 59 17 37
42 81 55 99 21 27 22 35 12 57 -15 33 -5 42 28 27 23 -10 30 -9 48 7 52 47
134 92 207 113 78 22 79 23 90 63 l12 41 11 -40 c14 -49 32 -53 90 -25 115 58
233 193 290 335 28 68 41 82 33 35 -9 -48 -69 -161 -122 -230 -38 -49 -44 -63
-39 -89 4 -17 11 -31 17 -31 6 0 41 30 77 68 68 70 121 157 146 242 l15 51
-32 50 c-36 57 -34 76 3 27 39 -51 49 -76 42 -102 -3 -14 5 -53 21 -97 25 -71
37 -155 38 -264 0 -74 -19 -226 -30 -234 -5 -3 -19 -35 -30 -71 -12 -36 -25
-73 -28 -82 -5 -13 -2 -18 9 -18 10 0 22 22 36 67 11 37 28 75 36 84 10 12 18
46 21 99 3 44 9 83 13 85 18 11 116 -187 140 -282 13 -51 15 -53 47 -53 18 0
33 4 33 9 0 46 -90 255 -138 320 -35 47 -52 112 -52 196 0 39 -4 75 -8 81 -14
16 -54 143 -49 156 3 8 10 0 16 -17 7 -16 19 -43 26 -60 21 -44 38 -122 31
-140 -9 -23 13 -127 33 -155 38 -54 134 -259 150 -320 l17 -65 344 -2 345 -3
-4 190 c-2 135 0 190 8 190 7 0 11 27 11 78 0 42 7 112 15 155 8 43 15 96 15
118 0 21 5 39 10 39 6 0 10 8 10 18 1 34 40 -28 40 -63 0 -19 7 -41 17 -50 17
-18 13 -57 -22 -210 -17 -71 -34 -188 -40 -266 -2 -31 -7 -72 -12 -90 -4 -19
-7 -51 -5 -71 l3 -38 120 0 119 0 0 33 c0 41 14 66 24 42 3 -9 6 -30 6 -46 l0
-29 295 0 295 0 0 185 c0 177 -1 185 -20 185 -27 0 -44 34 -25 50 8 7 21 10
29 7 13 -5 15 57 16 481 l0 487 -27 22 c-51 41 -97 73 -100 69 -6 -6 39 -79
79 -128 l39 -48 -35 0 c-33 0 -36 -2 -36 -30 0 -16 -4 -30 -10 -30 -5 0 -10
-16 -10 -35 0 -19 -8 -50 -17 -70 -16 -33 -16 -37 1 -71 9 -20 20 -34 23 -30
10 9 34 -31 38 -64 4 -37 -4 -38 -36 -4 -13 14 -34 30 -46 35 -13 5 -23 15
-23 23 0 8 -10 18 -22 22 -58 17 -75 73 -42 135 8 17 13 36 11 43 -10 24 42
258 54 250 17 -10 20 22 4 52 -14 27 -14 29 5 32 11 2 30 -5 43 -14 25 -20 88
-97 99 -123 4 -10 7 -5 7 16 1 48 -15 74 -69 113 -48 35 -79 74 -67 86 10 11
75 -16 101 -43 25 -25 26 -25 26 -4 0 22 -22 49 -64 76 -32 21 -34 39 -3 32
12 -3 34 -9 48 -12 l27 -7 1 97 2 97 -43 54 c-24 29 -48 53 -54 54 -7 0 -15 7
-18 16 -4 9 -9 14 -12 11 -3 -3 3 -18 14 -34 10 -15 26 -39 35 -53 9 -14 24
-35 33 -47 11 -15 13 -27 6 -39 -6 -11 -11 -13 -16 -5 -4 6 -14 11 -22 11 -9
0 -12 -5 -8 -11 4 -8 0 -9 -15 -4 -29 9 -28 -17 1 -30 29 -13 36 -35 9 -28
-11 3 -32 2 -46 -1 -20 -5 -25 -11 -20 -25 7 -23 -19 -51 -48 -51 -21 -1 -21
-1 -4 -15 29 -21 18 -49 -20 -53 -28 -3 -31 -5 -21 -21 21 -34 4 -49 -46 -44
-31 4 -46 2 -46 -6 0 -6 5 -11 11 -11 5 0 15 -13 20 -30 7 -18 15 -27 22 -23
6 4 2 -7 -9 -23 -12 -16 -24 -37 -27 -46 -4 -10 -13 -18 -21 -18 -11 0 -15
-10 -14 -34 1 -19 -5 -49 -12 -67 -12 -28 -15 -29 -21 -13 -4 10 -5 33 -3 49
4 29 4 29 -6 6 -6 -14 -8 -43 -5 -65 4 -29 2 -47 -9 -61 -9 -12 -15 -15 -16
-7 0 7 -4 11 -9 8 -11 -7 -19 33 -36 189 -17 151 -19 288 -5 265 18 -29 24 2
12 69 -6 37 -14 75 -18 84 -5 14 0 17 23 17 16 0 35 -6 41 -12 10 -10 15 -10
22 2 7 11 10 3 10 -27 0 -24 -4 -43 -10 -43 -6 0 -10 -27 -9 -62 l1 -63 9 44
c12 60 18 65 76 53 l48 -11 -28 21 c-15 11 -32 29 -38 40 -11 20 -10 21 47 14
32 -4 64 -12 71 -18 7 -6 17 -7 21 -3 4 4 1 10 -7 13 -7 2 -22 15 -33 27 -11
12 -37 31 -59 40 -36 17 -54 45 -27 45 22 0 83 -25 102 -42 11 -10 33 -18 49
-18 28 0 29 1 26 44 -3 32 -1 42 9 39 8 -4 7 4 -4 24 -11 18 -26 30 -42 31
-14 1 -33 9 -42 17 -9 8 -33 15 -53 15 -25 0 -37 5 -37 14 0 13 -21 27 -45 31
-5 0 -17 4 -25 7 -8 4 -24 8 -34 10 -11 2 -21 9 -24 17 -4 11 3 13 30 8 19 -3
41 -1 49 4 12 7 12 9 -1 9 -12 0 -12 2 -1 9 10 7 11 13 2 29 -6 12 -10 26 -9
31 2 6 -13 19 -32 28 -28 15 -35 23 -33 45 1 17 -3 27 -10 25 -13 -2 -14 36
-3 93 7 35 7 35 -8 10 -13 -22 -15 -23 -16 -5 0 10 -17 36 -37 57 -20 21 -33
38 -27 38 11 0 56 -29 65 -43 14 -20 29 49 16 71 -10 14 9 16 26 2 7 -5 27
-21 45 -36 18 -15 32 -35 32 -48 0 -15 6 -22 19 -22 16 0 18 3 9 21 -18 33
-119 125 -138 125 -9 0 -20 3 -24 7 -21 21 -106 35 -246 40 -162 5 -158 4
-297 69 -96 44 -50 49 77 9 62 -19 153 -34 225 -36 33 -1 69 -7 80 -12 11 -6
48 -12 83 -13 81 -3 151 -43 233 -135 53 -59 81 -81 211 -166 40 -27 89 -78
107 -111 14 -26 4 -28 -27 -6 -26 18 -30 5 -4 -17 9 -8 25 -26 34 -39 16 -24
17 -6 17 353 l1 377 -37 1 c-21 0 -47 4 -58 9 -16 7 -13 9 17 9 20 1 40 6 43
11 6 10 -24 12 -205 16 -47 2 -104 5 -127 8 -43 5 -64 -7 -45 -26 6 -6 12 -6
16 1 5 8 13 8 27 1 11 -6 23 -9 27 -6 4 3 14 0 22 -5 10 -7 -6 -8 -50 -5 -36
3 -75 5 -87 5 -28 1 -31 21 -3 21 11 0 20 5 20 10 0 19 -39 10 -45 -10 -3 -11
-13 -20 -21 -20 -10 0 -13 6 -9 19 9 28 -39 31 -395 25 -561 -9 -867 -4 -1084
20 -161 18 -206 28 -206 45 0 12 176 23 265 17 39 -2 229 -8 423 -12 280 -5
365 -4 410 6 31 8 60 18 63 23 8 12 0 376 -12 527 -5 63 -15 201 -23 305 -8
105 -20 211 -25 235 -6 25 -11 64 -11 87 l0 42 58 -5 c31 -3 66 -7 76 -9 11
-2 28 1 38 6 10 6 78 9 151 9 177 -2 180 -2 189 13 5 7 8 2 8 -15 0 -32 15
-35 49 -12 22 16 23 15 19 -7 -2 -20 -10 -25 -40 -27 -71 -6 -38 -19 42 -17
51 1 83 -2 89 -9 10 -12 -32 -17 -141 -19 -33 -1 -38 -4 -38 -24 0 -19 5 -23
29 -23 16 0 34 -7 41 -15 9 -10 9 -15 1 -15 -13 0 -14 -39 -1 -60 6 -9 10 -11
10 -3 0 7 7 10 15 7 25 -10 -3 -34 -39 -34 -17 0 -37 -4 -45 -9 -13 -9 3 -11
202 -27 65 -5 77 -9 77 -24 0 -17 25 -35 43 -31 5 1 6 -3 3 -8 -8 -12 35 -39
60 -37 12 0 33 12 47 26 21 20 27 35 27 69 0 24 2 42 4 40 7 -7 16 -352 9
-376 -7 -30 -49 -32 -58 -2 -5 13 -12 18 -23 14 -8 -3 -19 0 -23 7 -5 8 -11 3
-19 -17 -13 -33 2 -95 27 -121 11 -11 11 -26 2 -81 -7 -37 -18 -80 -26 -95 -7
-15 -13 -58 -13 -95 0 -46 -5 -76 -16 -91 -8 -12 -11 -22 -5 -22 5 0 13 -9 16
-21 5 -15 1 -25 -16 -37 -22 -15 -19 -16 77 -34 153 -29 204 -33 204 -15 0 9
-6 18 -12 20 -10 4 -10 6 0 6 9 1 12 370 12 1811 l0 1810 -35 0 c-31 0 -180
-22 -242 -35 -13 -3 -23 -11 -23 -18 0 -14 -39 -55 -52 -56 -5 -1 -14 -1 -20
-2 -7 -1 -2 -4 12 -8 33 -9 34 -49 3 -74 -13 -10 -21 -22 -18 -27 3 -4 -2 -13
-10 -20 -8 -7 -15 -19 -15 -26 0 -17 -1 -17 -34 -4 -18 6 -26 6 -26 -1 0 -6
-6 -16 -13 -23 -15 -15 -38 -3 -50 24 -4 8 -5 0 -2 -18 3 -24 1 -32 -8 -29 -6
2 -11 10 -9 16 1 7 -2 9 -8 6 -7 -4 -9 -19 -5 -36 4 -19 3 -29 -5 -29 -6 0 -8
5 -5 10 3 6 0 10 -8 10 -10 0 -13 -7 -10 -20 3 -11 1 -20 -5 -20 -5 0 -12 9
-15 21 -5 20 -7 20 -31 4 -25 -16 -52 -13 -41 6 12 18 -11 9 -25 -11 -8 -11
-19 -20 -24 -20 -5 0 -25 -12 -43 -26 -34 -26 -36 -34 -19 -75 4 -9 -2 -25
-14 -39 l-20 -23 0 23 c0 23 0 23 -15 4 -13 -17 -14 -17 -15 -1 0 36 -30 17
-36 -24 -4 -23 -15 -46 -25 -52 -13 -8 -19 -24 -19 -49 0 -27 -4 -38 -15 -38
-9 0 -12 -6 -8 -17 4 -11 3 -14 -5 -9 -7 4 -12 19 -12 34 0 24 -1 25 -14 7 -7
-10 -11 -27 -8 -37 2 -10 -2 -20 -12 -24 -12 -4 -13 -10 -6 -24 14 -26 12 -40
-5 -40 -8 0 -15 -7 -15 -16 0 -8 5 -12 11 -9 6 4 16 -1 23 -11 9 -12 15 -14
20 -6 4 7 16 12 27 12 16 0 18 -5 13 -27 -4 -15 -8 -46 -8 -70 -1 -56 -16 -56
-16 -1 0 38 -1 41 -16 27 -11 -12 -14 -26 -9 -52 4 -20 11 -34 16 -31 5 3 9
-4 9 -15 0 -43 8 -47 70 -43 33 2 67 1 77 -2 15 -6 14 -10 -10 -31 -14 -14
-33 -25 -42 -25 -9 0 -13 -4 -10 -10 3 -5 -1 -10 -9 -10 -22 0 -36 -32 -36
-82 0 -68 -9 -88 -38 -88 -25 0 -25 -1 -19 -64 5 -51 3 -65 -8 -70 -11 -4 -13
-11 -5 -30 7 -19 6 -24 -3 -20 -7 2 -13 28 -15 62 -3 42 -9 63 -25 80 -17 18
-18 22 -4 16 22 -8 22 0 0 26 -21 24 -51 25 -98 6 -39 -17 -71 -68 -57 -92 5
-9 7 -28 4 -42 -5 -24 -6 -25 -13 -7 -4 11 -6 -47 -3 -130 3 -84 9 -152 15
-156 13 -7 42 -185 36 -221 -2 -15 1 -29 7 -31 7 -2 11 -33 10 -75 0 -60 -4
-76 -22 -95 -26 -27 -27 -45 -7 -73 8 -12 11 -24 8 -28 -3 -3 23 -6 58 -5 40
0 57 3 44 8 -16 7 -15 9 12 14 18 4 33 14 36 24 2 10 3 6 2 -9 -1 -16 2 -28 6
-28 17 0 33 35 31 68 -1 20 2 51 6 67 l9 30 7 -33 c4 -18 12 -29 17 -26 6 3
22 -2 37 -12 15 -10 30 -17 35 -16 4 1 7 -3 7 -8 0 -6 -4 -10 -10 -10 -5 0
-10 -4 -10 -10 0 -18 26 -11 47 13 28 30 50 76 54 112 2 17 6 35 10 40 3 6 9
21 12 35 8 33 57 100 57 77 0 -13 6 -15 33 -10 17 3 34 9 37 13 3 3 13 9 23
13 13 5 20 0 27 -18 5 -14 17 -25 26 -25 18 0 104 -85 104 -102 0 -6 7 -8 15
-4 10 4 17 -3 21 -22 3 -15 8 -35 11 -44 5 -19 -12 -25 -22 -8 -9 15 -35 -8
-35 -31 0 -10 -4 -21 -10 -24 -5 -3 -10 -17 -10 -30 0 -26 -43 -43 -65 -25 -9
7 -21 6 -41 -5 -41 -21 -86 -19 -113 6 -20 19 -21 22 -7 38 18 19 21 78 6 101
-11 17 -12 14 -31 -76 -10 -48 -17 -62 -38 -72 -14 -7 -31 -12 -38 -12 -7 0
-13 -4 -13 -9 0 -15 20 -24 33 -14 11 8 33 10 40 3 1 -2 28 -4 60 -5 32 -1 62
-6 65 -12 9 -14 42 -18 66 -8 13 6 21 4 24 -3 2 -7 10 -12 17 -12 24 0 26 -18
2 -19 -72 -4 -612 0 -666 5 -66 7 -67 24 -2 24 l34 0 -23 20 c-24 21 -84 27
-95 10 -51 -83 -75 270 -69 1035 6 699 8 722 65 837 16 31 28 40 71 53 65 19
88 19 88 0 0 -10 10 -15 32 -15 17 0 41 -8 52 -17 12 -10 15 -11 9 -3 -7 8
-13 24 -13 37 0 19 5 23 28 23 15 0 33 5 39 11 6 6 27 14 47 19 32 7 36 6 36
-11 0 -10 5 -19 10 -19 6 0 10 7 10 17 0 14 2 14 20 -2 16 -14 19 -15 15 -4
-8 22 22 46 38 30 7 -7 12 -17 12 -24 0 -7 7 -12 15 -12 8 0 15 5 15 12 0 6 3
15 8 19 4 4 7 1 7 -6 0 -10 4 -9 18 3 19 17 132 19 144 2 4 -6 8 -2 8 8 0 10
4 15 10 12 6 -4 7 5 4 23 -5 25 -2 31 15 37 12 4 28 2 36 -5 7 -6 16 -7 19 -2
6 10 0 71 -7 79 -3 2 -1 18 4 35 l8 31 -122 -7 c-161 -8 -424 -43 -465 -62
-41 -18 -93 -18 -117 0 -21 15 -18 41 25 206 50 193 84 331 96 395 7 39 18 86
23 105 41 146 75 262 87 298 8 23 14 45 14 47 0 3 -934 5 -2075 5 l-2075 0 -2
-212 c-2 -236 -2 -251 1 -323 4 -63 5 -259 2 -345 -1 -36 1 -94 5 -129 7 -73
19 -70 49 14 9 28 23 55 30 60 7 6 15 20 19 32 9 28 194 199 296 274 271 198
520 293 808 306 189 9 328 -28 577 -154 208 -105 349 -208 518 -377 139 -139
171 -178 235 -292 89 -156 109 -224 162 -533 10 -58 23 -74 49 -61 41 21 100
30 127 19 17 -6 43 -7 64 -3 19 5 58 9 85 11 112 5 170 15 182 30 42 54 57
-63 51 -404 -2 -120 -7 -206 -13 -212 -10 -10 -47 -13 -345 -27 -85 -4 -160
-11 -167 -16 -7 -6 -8 -20 -3 -41 16 -66 39 -173 46 -216 l6 -45 15 27 c16 32
45 35 73 7 32 -32 45 -76 92 -315 15 -74 4 -134 -46 -248 -83 -191 -66 -296
47 -297 12 0 29 -5 37 -10 13 -9 11 -14 -12 -33 -25 -20 -75 -112 -70 -129 1
-5 -5 -8 -13 -8 -11 0 -15 -12 -15 -44 0 -48 -17 -106 -31 -106 -5 0 -9 8 -9
18 0 14 -2 14 -9 3 -15 -24 -23 46 -12 109 6 41 5 59 -5 75 -9 14 -14 60 -16
140 -2 100 -5 122 -21 138 -14 14 -18 35 -20 92 -1 42 -6 73 -12 72 -26 -9
-37 -107 -39 -337 -3 -227 -8 -281 -29 -308 -5 -7 -7 -28 -4 -47 3 -19 2 -35
-4 -35 -5 0 -9 -9 -9 -21 0 -11 -5 -29 -10 -39 -6 -10 -11 -32 -12 -47 -1 -15
-9 -36 -17 -46 -11 -13 -16 -41 -16 -93 0 -47 -4 -74 -11 -74 -6 0 -18 -18
-26 -39 -13 -34 -14 -41 -2 -45 28 -11 15 -28 -16 -21 -23 5 -32 3 -37 -11 -4
-10 -2 -19 5 -22 19 -6 14 -30 -8 -42 -11 -6 -22 -26 -26 -48 -10 -59 -19 -69
-34 -41 -13 22 -13 23 -20 4 -4 -11 -4 -30 1 -42 5 -12 4 -25 0 -27 -5 -3 -11
8 -15 24 -7 35 -36 42 -36 8 0 -17 -3 -19 -12 -10 -20 20 -30 13 -23 -16 4
-21 1 -33 -15 -47 -11 -10 -20 -29 -20 -42 0 -32 -18 -20 -36 23 -16 38 -21
40 -68 20 -21 -9 -38 -10 -49 -5 -12 7 -24 2 -45 -21 -30 -31 -56 -38 -67 -19
-4 6 -13 8 -21 5 -7 -3 -16 -1 -19 5 -4 5 -11 6 -17 3 -7 -5 -8 -2 -2 7 5 8 9
28 10 44 6 96 18 195 24 195 4 0 10 9 13 21 3 12 10 18 16 14 8 -4 8 2 1 21
-8 21 -8 25 4 21 9 -4 12 0 9 13 -3 10 0 21 6 24 6 4 10 17 10 29 -1 18 -2 19
-6 4 -5 -18 -5 -18 -19 0 -7 10 -14 24 -14 32 0 20 51 56 77 53 21 -3 22 0 17
30 -8 45 -42 115 -58 121 -8 3 -24 23 -36 44 -12 21 -36 47 -53 59 -18 11 -31
26 -30 32 2 6 -7 14 -20 18 -46 14 -228 210 -211 227 3 3 -17 15 -45 28 -28
13 -53 31 -56 40 -5 14 -85 76 -85 66 0 -2 9 -23 21 -47 25 -52 49 -140 49
-180 0 -17 4 -29 10 -27 5 1 26 -13 47 -31 69 -60 139 -117 163 -132 13 -8 36
-26 52 -40 51 -45 56 -49 60 -45 9 9 26 -33 18 -45 -6 -10 -15 -6 -36 14 -17
15 -38 25 -50 24 -12 -2 -27 2 -35 8 -22 18 -70 23 -128 13 -44 -7 -58 -6 -72
7 -11 10 -19 12 -24 5 -10 -18 -44 -12 -57 9 -7 11 -21 20 -30 20 -25 0 -22
24 7 74 36 62 28 73 -48 69 -131 -7 -165 -14 -192 -39 -14 -13 -30 -22 -35
-19 -5 3 -11 1 -15 -5 -9 -14 -56 -12 -105 5 -23 8 -66 15 -94 16 -34 1 -43 3
-28 7 l23 7 -21 23 c-11 12 -33 22 -48 22 -32 1 -61 24 -82 65 -8 16 -34 48
-57 72 -41 40 -43 44 -43 104 0 42 5 68 15 78 8 9 26 30 39 47 24 29 24 32 11
72 -13 38 -13 45 5 87 11 25 26 48 34 51 20 8 27 42 10 58 -16 16 -19 30 -5
22 5 -4 15 34 22 84 7 49 16 90 20 90 4 0 9 15 12 33 3 17 10 50 17 72 6 22
15 58 19 81 10 56 57 133 87 145 14 5 22 13 19 19 -3 6 4 10 17 11 15 0 18 3
8 6 -8 3 -31 19 -51 34 -20 16 -45 29 -55 29 -43 0 -66 12 -61 32 4 14 -4 23
-33 38 -27 14 -43 30 -51 55 -8 22 -20 35 -31 35 -10 0 -18 6 -18 13 0 8 -8
22 -19 31 -17 16 -19 16 -24 -5 -6 -22 -7 -22 -37 8 l-31 31 -148 0 c-124 0
-153 3 -175 17 -30 20 -116 28 -298 28 -115 -1 -159 8 -110 20 16 4 16 5 0 6
-25 1 -23 27 2 34 29 7 25 29 -10 52 -17 12 -32 32 -36 50 -3 16 -12 40 -20
52 -9 14 -16 59 -18 117 -2 51 -8 102 -14 112 -13 26 -14 147 -2 209 6 29 21
62 35 77 23 26 36 88 17 88 -4 0 -8 27 -9 61 -1 72 -13 89 -41 61 -15 -15 -19
-32 -18 -73 0 -30 -3 -56 -9 -59 -13 -6 -24 160 -12 177 9 12 17 1170 9 1206
-4 16 -40 17 -587 17 l-582 0 -1 -67z m275 10 c-3 -10 -5 -4 -5 12 0 17 2 24
5 18 2 -7 2 -21 0 -30z m-231 -79 c3 -27 14 -69 25 -93 11 -24 22 -58 24 -76
3 -18 9 -45 15 -59 5 -15 10 -42 10 -59 0 -34 26 -159 40 -192 14 -31 16 -78
4 -82 -6 -2 -16 26 -24 69 -14 71 -14 72 -20 33 l-6 -40 -8 30 c-4 17 -11 39
-16 50 -5 11 -11 31 -14 45 -5 24 -34 139 -43 170 -15 51 -12 272 3 257 3 -2
7 -26 10 -53z m231 34 c-3 -8 -6 -5 -6 6 -1 11 2 17 5 13 3 -3 4 -12 1 -19z
m-7 -265 c0 -112 -4 -182 -9 -174 -5 7 -7 39 -6 70 2 31 4 109 4 174 1 64 3
117 6 117 3 0 5 -84 5 -187z m-13 -260 c-3 -10 -5 -4 -5 12 0 17 2 24 5 18 2
-7 2 -21 0 -30z m0 -80 c-3 -10 -5 -2 -5 17 0 19 2 27 5 18 2 -10 2 -26 0 -35z
m1 -265 c-2 -206 -3 -223 -7 -110 -6 137 -3 352 5 352 2 0 3 -109 2 -242z
m-241 -140 c-3 -7 -5 -2 -5 12 0 14 2 19 5 13 2 -7 2 -19 0 -25z m23 -38 c0
-5 3 -15 6 -24 4 -10 1 -16 -9 -16 -15 0 -27 20 -27 46 0 8 6 11 15 8 8 -4 15
-10 15 -14z m220 -175 c0 -41 -4 -75 -10 -75 -5 0 -7 30 -5 73 4 83 4 77 10
77 3 0 5 -34 5 -75z m5500 -27 c0 -18 -2 -20 -9 -8 -6 8 -7 18 -5 22 9 14 14
9 14 -14z m-5505 -148 c3 -5 1 -10 -4 -10 -6 0 -11 5 -11 10 0 6 2 10 4 10 3
0 8 -4 11 -10z m5270 -21 c4 -11 4 -23 1 -26 -3 -4 -6 1 -6 10 0 10 -4 17 -10
17 -5 0 -10 5 -10 10 0 18 19 10 25 -11z m-1065 -104 c11 -13 1 -15 -84 -15
-144 0 -123 23 25 28 31 1 51 -3 59 -13z m1266 -372 c-10 -10 -19 5 -10 18 6
11 8 11 12 0 2 -7 1 -15 -2 -18z m-66 7 c0 -5 -7 -10 -15 -10 -8 0 -15 5 -15
10 0 6 7 10 15 10 8 0 15 -4 15 -10z m-5593 -232 c-3 -8 -6 -5 -6 6 -1 11 2
17 5 13 3 -3 4 -12 1 -19z m5413 12 c0 -5 -4 -10 -10 -10 -5 0 -10 5 -10 10 0
6 5 10 10 10 6 0 10 -4 10 -10z m-180 -161 c0 -18 -19 -28 -21 -11 0 4 -2 27
-4 52 l-4 45 14 -34 c8 -18 15 -42 15 -52z m681 34 c-12 -20 -14 -14 -5 12 4
9 9 14 11 11 3 -2 0 -13 -6 -23z m-758 -70 c-3 -7 -9 -13 -14 -13 -11 0 -12
44 -2 54 9 9 22 -25 16 -41z m87 -24 c0 -5 -4 -9 -10 -9 -5 0 -10 7 -10 16 0
8 5 12 10 9 6 -3 10 -10 10 -16z m-86 -54 c-4 -8 -11 -12 -16 -9 -6 4 -5 10 3
15 19 12 19 11 13 -6z m123 -7 c-3 -8 -6 -5 -6 6 -1 11 2 17 5 13 3 -3 4 -12
1 -19z m-4267 -133 c6 -8 9 -18 6 -23 -3 -5 0 -39 6 -77 10 -58 9 -69 -4 -79
-22 -16 -33 -56 -15 -56 8 0 20 -14 27 -31 10 -22 15 -27 21 -17 7 11 11 10
18 -1 8 -12 16 -13 48 -2 35 12 42 11 78 -10 22 -13 46 -29 53 -36 7 -7 17
-13 22 -13 5 0 21 -11 37 -24 15 -13 53 -29 83 -37 62 -15 250 -15 289 0 14 5
64 21 111 35 103 31 160 67 160 100 0 19 6 25 33 29 38 6 49 -1 24 -14 -9 -6
-17 -17 -17 -24 0 -8 -4 -15 -10 -15 -12 0 -14 -77 -2 -84 14 -8 12 -100 -3
-116 -7 -8 -16 -31 -20 -50 -9 -43 -50 -117 -82 -148 -14 -14 -23 -35 -23 -53
0 -62 -33 -107 -160 -219 -22 -19 -42 -42 -45 -52 -3 -9 -21 -23 -39 -32 -18
-9 -39 -22 -46 -31 -7 -8 -17 -15 -22 -15 -5 0 -16 -7 -24 -15 -10 -9 -34 -15
-63 -15 -31 0 -53 -5 -61 -15 -7 -8 -16 -12 -21 -9 -5 3 -21 8 -36 10 -14 3
-37 14 -51 24 -14 11 -30 20 -36 20 -15 1 -61 42 -75 69 -8 14 -21 21 -43 21
-25 0 -29 3 -25 20 4 15 0 20 -14 20 -24 0 -37 29 -19 40 19 12 4 40 -22 40
-13 0 -34 9 -47 19 -22 17 -25 26 -23 90 1 57 -2 72 -16 80 -14 8 -17 26 -17
110 0 56 3 101 8 101 4 0 7 -8 8 -17 0 -16 1 -16 8 1 4 10 20 24 37 31 16 8
23 14 17 14 -7 1 -13 8 -13 16 0 10 -10 15 -30 15 -29 0 -30 2 -30 44 0 24 4
46 9 48 9 3 12 63 12 242 0 49 2 93 5 98 8 12 20 10 34 -7z m27 -82 c-3 -10
-5 -4 -5 12 0 17 2 24 5 18 2 -7 2 -21 0 -30z m796 -24 c12 -7 30 -20 40 -31
16 -16 16 -20 4 -32 -12 -12 -81 -46 -93 -46 -2 0 1 12 6 26 6 14 10 41 10 60
0 38 2 39 33 23z m3772 -59 c3 -5 1 -10 -4 -10 -6 0 -11 5 -11 10 0 6 2 10 4
10 3 0 8 -4 11 -10z m-3745 -100 c0 -5 -4 -10 -10 -10 -5 0 -10 5 -10 10 0 6
5 10 10 10 6 0 10 -4 10 -10z m-1234 -427 c-11 -11 -19 6 -11 24 8 17 8 17 12
0 3 -10 2 -21 -1 -24z m1314 -191 c0 -15 5 -33 10 -38 15 -15 -9 -66 -28 -62
-8 2 -20 12 -26 23 -6 11 -19 26 -28 33 -26 19 -22 30 15 52 44 27 57 25 57
-8z m1055 -462 c3 -6 -1 -7 -9 -4 -18 7 -21 14 -7 14 6 0 13 -4 16 -10z
m-1723 -132 l-8 -32 -13 31 c-11 26 -11 34 1 46 19 22 31 -4 20 -45z m1388 9
c0 -20 0 -20 -14 -2 -8 11 -12 23 -9 28 8 13 23 -3 23 -26z m84 8 c-4 -8 -10
-12 -15 -9 -14 8 -10 24 6 24 9 0 12 -6 9 -15z m571 -15 c13 -15 15 -24 8 -31
-8 -8 -16 -3 -27 20 -19 35 -8 41 19 11z m2850 -7 c-3 -16 -7 -45 -8 -65 -2
-21 -7 -41 -12 -45 -4 -5 -5 7 -1 26 3 18 6 51 6 72 0 22 4 39 10 39 5 0 7
-12 5 -27z m-3235 -8 c14 -19 14 -19 -2 -6 -10 7 -18 18 -18 24 0 6 1 8 3 6 1
-2 9 -13 17 -24z m-410 -30 c0 -8 5 -15 10 -15 6 0 10 -4 10 -10 0 -19 -17
-10 -28 15 -7 15 -8 25 -2 25 6 0 10 -7 10 -15z m3621 -175 c-9 -23 -10 -23
-10 11 -1 20 2 39 7 43 11 12 14 -27 3 -54z m-2331 -37 c0 -22 -2 -25 -10 -13
-13 20 -13 40 0 40 6 0 10 -12 10 -27z m-820 -69 c0 -36 -5 -74 -11 -85 -6
-13 -7 -25 -1 -32 6 -8 4 -36 -5 -75 -12 -50 -20 -66 -39 -74 -14 -6 -23 -16
-21 -22 4 -12 -35 -46 -51 -46 -5 0 -13 -11 -16 -25 -4 -14 -11 -23 -16 -20
-6 3 -10 -3 -10 -14 0 -12 -4 -21 -10 -21 -5 0 -7 -7 -4 -15 7 -17 -18 -45
-40 -45 -9 0 -16 7 -16 16 0 31 -25 7 -31 -29 -7 -46 -18 -58 -26 -29 -3 12
-13 22 -23 22 -12 0 -20 -14 -29 -55 -11 -48 -16 -55 -36 -55 -41 0 -73 -18
-77 -42 -2 -13 -10 -23 -18 -23 -11 0 -15 12 -14 48 0 34 -4 47 -14 47 -10 0
-12 7 -8 23 3 12 6 29 6 38 0 9 9 19 20 22 11 3 24 17 30 31 5 15 17 29 25 32
10 4 15 20 15 50 0 36 3 43 18 42 40 -3 62 3 62 17 0 8 5 15 10 15 21 0 9 26
-20 42 -24 14 -30 24 -30 53 0 30 3 35 24 35 29 0 76 36 76 58 0 24 76 109
114 129 17 9 34 21 38 27 5 8 13 8 28 -2 16 -10 20 -10 20 2 0 17 15 24 53 25
27 1 27 0 27 -65z m-260 29 c0 -8 -9 -26 -20 -40 -11 -14 -20 -35 -20 -47 0
-17 -2 -18 -10 -6 -5 8 -10 10 -10 4 0 -7 -21 -22 -47 -34 -25 -12 -53 -30
-62 -41 -14 -17 -22 -18 -76 -9 -33 5 -77 10 -97 12 -21 1 -38 6 -38 10 0 4
-11 10 -25 14 -14 3 -25 13 -25 21 0 13 -3 13 -15 3 -9 -7 -14 -22 -13 -34 3
-19 -3 -21 -49 -24 -40 -2 -53 0 -53 11 0 20 -44 39 -59 24 -8 -8 -11 -4 -11
17 0 36 30 101 40 86 5 -8 9 -7 13 4 4 9 10 15 14 14 4 -1 20 5 36 12 24 12
32 11 64 -4 26 -12 38 -14 43 -6 5 8 52 14 126 17 66 3 120 6 122 8 2 2 41 3
88 3 68 0 84 -3 84 -15z m890 -258 c0 -8 -2 -15 -4 -15 -2 0 -6 7 -10 15 -3 8
-1 15 4 15 6 0 10 -7 10 -15z m2091 -8 c-1 -12 -15 -9 -19 4 -3 6 1 10 8 8 6
-3 11 -8 11 -12z m-201 -7 c0 -5 -8 -10 -17 -10 -15 0 -16 2 -3 10 19 12 20
12 20 0z m75 0 c15 -7 9 -9 -25 -9 -33 -1 -41 2 -30 9 18 12 28 12 55 0z m50
0 c3 -5 1 -10 -4 -10 -6 0 -11 5 -11 10 0 6 2 10 4 10 3 0 8 -4 11 -10z m554
-16 c12 -11 -8 -10 -39 2 l-35 14 35 -6 c19 -4 37 -8 39 -10z m-1206 -11 c-18
-2 -48 -2 -65 0 -18 2 -4 4 32 4 36 0 50 -2 33 -4z m336 -4 c71 -1 108 -5 100
-10 -21 -14 -349 -5 -349 10 0 3 30 5 67 4 38 -1 119 -3 182 -4z m841 -15 c0
-2 -14 -4 -31 -4 -16 0 -28 4 -25 9 5 8 56 3 56 -5z m-475 -294 c4 -6 -8 -10
-29 -10 -19 0 -38 5 -41 10 -4 6 8 10 29 10 19 0 38 -4 41 -10z m-3248 -52
c-3 -8 -6 -5 -6 6 -1 11 2 17 5 13 3 -3 4 -12 1 -19z m40 -10 c-3 -7 -5 -2 -5
12 0 14 2 19 5 13 2 -7 2 -19 0 -25z m2193 -144 c0 -28 -15 -25 -23 6 -3 13 0
20 9 20 8 0 14 -10 14 -26z m-1232 -26 c19 -19 14 -29 -8 -16 -20 13 -27 28
-12 28 4 0 13 -5 20 -12z m-1206 -80 c-7 -7 -12 -8 -12 -2 0 6 3 14 7 17 3 4
9 5 12 2 2 -3 -1 -11 -7 -17z m2416 -10 c6 -18 13 -41 17 -50 11 -28 -11 -21
-23 7 -12 25 -16 75 -7 75 2 0 8 -15 13 -32z m629 -90 c-3 -8 -6 -5 -6 6 -1
11 2 17 5 13 3 -3 4 -12 1 -19z m-3504 -83 c4 -57 3 -69 -3 -40 -9 40 -13 132
-6 124 2 -2 6 -40 9 -84z m-1628 16 c-6 -5 -26 -18 -45 -29 -19 -11 -34 -25
-32 -32 2 -7 -5 -9 -18 -5 -22 7 -26 -5 -8 -23 9 -9 5 -12 -22 -12 -18 0 -42
-7 -52 -17 -17 -15 -18 -15 -18 0 0 10 4 17 9 17 5 0 16 6 23 13 25 23 94 67
107 67 7 0 19 7 27 15 9 8 21 15 27 15 7 0 7 -3 2 -9z m4585 -35 c0 -6 -7 -2
-15 8 -8 11 -15 25 -15 30 0 6 7 2 15 -8 8 -11 15 -25 15 -30z m1260 -47 c0
-3 18 -9 39 -13 46 -7 87 -39 58 -44 -34 -7 -137 37 -137 58 0 5 9 8 20 7 11
-1 20 -4 20 -8z m-603 -171 c-3 -8 -6 -5 -6 6 -1 11 2 17 5 13 3 -3 4 -12 1
-19z m22 -40 c5 -13 18 -47 30 -75 11 -29 17 -53 12 -53 -10 0 -61 114 -61
136 0 21 9 17 19 -8z m-49 -45 c18 -39 31 -88 21 -77 -15 15 -50 104 -42 104
4 0 14 -12 21 -27z m-5292 -50 c-10 -2 -26 -2 -35 0 -10 3 -2 5 17 5 19 0 27
-2 18 -5z m4576 -38 c5 -22 4 -26 -4 -15 -5 8 -10 24 -10 34 0 26 6 18 14 -19z
m-4624 15 c0 -5 -4 -10 -10 -10 -5 0 -10 5 -10 10 0 6 5 10 10 10 6 0 10 -4
10 -10z m5261 -51 c37 -38 49 -66 42 -102 -5 -23 -7 -24 -19 -12 -22 21 -71
145 -58 145 3 0 18 -14 35 -31z m117 0 c-3 -8 -7 -3 -11 10 -4 17 -3 21 5 13
5 -5 8 -16 6 -23z m-191 -32 c18 -24 44 -70 58 -103 15 -32 42 -92 61 -132 36
-77 43 -97 20 -66 -20 26 -31 11 -18 -25 10 -29 10 -30 -8 -18 -11 6 -26 27
-34 47 -8 19 -15 28 -15 20 -1 -8 8 -30 19 -48 11 -18 20 -41 20 -51 0 -10 7
-24 15 -31 16 -13 21 -79 7 -96 -9 -9 -47 -129 -57 -177 -5 -23 -9 -26 -30
-21 -23 6 -24 4 -20 -32 6 -47 -5 -30 -30 46 -10 30 -30 87 -45 125 -24 59
-27 81 -24 140 3 49 1 64 -5 50 -7 -14 -10 -16 -10 -5 -1 9 4 21 9 26 8 8 7
19 -1 37 -10 23 -9 30 6 47 16 18 16 20 1 26 -9 3 -16 15 -16 25 0 16 3 17 19
7 11 -7 22 -19 26 -28 14 -36 74 -134 74 -120 0 8 -6 24 -14 34 -8 11 -15 26
-15 34 0 8 -11 38 -24 66 -25 55 -39 123 -27 131 11 6 45 -33 70 -82 35 -70
42 -59 11 16 -17 38 -30 79 -30 91 0 11 -9 38 -20 60 -11 22 -20 42 -20 45 0
15 18 0 47 -38z m280 -9 c-3 -7 -5 -2 -5 12 0 14 2 19 5 13 2 -7 2 -19 0 -25z
m18 -89 c9 -50 -7 -72 -23 -32 -24 63 -25 73 -4 73 16 0 22 -9 27 -41z m-56
-98 c10 -10 22 -30 26 -43 15 -52 28 -78 40 -78 8 0 26 -26 40 -57 15 -32 30
-65 34 -73 4 -8 15 -42 25 -75 19 -62 24 -76 46 -135 7 -19 14 -47 15 -61 1
-14 4 -30 7 -35 12 -19 50 -175 44 -181 -3 -3 -8 0 -10 8 -2 8 -15 46 -27 84
-12 39 -46 117 -75 175 -29 58 -58 124 -66 148 -7 23 -16 42 -20 42 -5 0 -8
18 -8 41 0 28 -4 38 -12 33 -8 -5 -9 2 -5 24 4 21 2 36 -9 46 -8 9 -15 18 -14
21 1 26 -2 35 -10 30 -6 -4 -7 1 -3 11 4 12 3 15 -5 10 -7 -4 -17 7 -27 30
-24 57 -19 68 14 35z m375 -122 c8 -46 14 -93 14 -104 1 -11 6 -58 11 -105 14
-121 13 -265 -3 -338 -26 -119 -32 -88 -29 130 2 117 -1 233 -6 258 -16 73
-25 267 -12 254 6 -6 18 -48 25 -95z m-4968 -34 c15 -5 24 -77 30 -257 3 -105
13 -192 30 -275 13 -66 21 -128 18 -137 -3 -9 -16 -16 -29 -16 -22 0 -106 22
-153 41 -13 5 -35 9 -50 9 l-27 0 -1 168 c-1 92 -6 235 -11 317 -6 83 -9 153
-7 157 4 6 176 0 200 -7z m-416 -109 c30 -1 71 2 91 6 62 11 62 9 70 -205 8
-199 21 -277 47 -277 12 0 12 -4 -2 -25 -9 -13 -16 -45 -16 -70 0 -44 -1 -45
-27 -40 -16 4 -38 8 -50 11 -23 4 -33 24 -13 24 6 0 10 9 10 20 0 13 7 20 19
20 11 0 23 9 26 21 5 15 9 18 15 9 6 -9 9 -9 15 0 9 14 8 15 -40 27 -22 6 -78
25 -125 43 -67 25 -89 29 -103 20 -15 -9 -22 -7 -36 8 -9 11 -43 26 -74 33
-67 16 -107 49 -88 73 9 11 10 20 2 35 -22 41 -6 171 24 193 28 21 55 7 74
-34 16 -35 47 -168 55 -238 1 -8 8 -26 15 -39 l13 -23 17 26 c16 23 16 33 5
84 -7 31 -20 102 -29 157 -9 55 -18 113 -22 129 l-6 29 39 -8 c21 -5 64 -9 94
-9z m1405 -106 c3 -5 1 -10 -4 -10 -6 0 -11 5 -11 10 0 6 2 10 4 10 3 0 8 -4
11 -10z m3695 -65 c0 -9 7 -29 15 -44 12 -24 12 -31 1 -40 -17 -14 -36 22 -34
67 1 31 18 47 18 17z m618 -25 c36 -44 38 -50 17 -50 -32 0 -65 31 -65 61 0
38 9 36 48 -11z m-3678 -15 c0 -5 -5 -3 -10 5 -5 8 -10 20 -10 25 0 6 5 3 10
-5 5 -8 10 -19 10 -25z m3733 -45 c3 -11 1 -20 -4 -20 -5 0 -9 9 -9 20 0 11 2
20 4 20 2 0 6 -9 9 -20z m-1926 -22 c-3 -8 -6 -5 -6 6 -1 11 2 17 5 13 3 -3 4
-12 1 -19z m-1867 -29 c0 -17 -20 -29 -20 -11 0 4 -3 18 -7 32 -6 22 -5 24 10
11 9 -7 17 -22 17 -32z m2040 -10 c0 -21 -17 -7 -27 24 l-12 32 19 -24 c11
-13 20 -27 20 -32z m1110 6 c0 -5 -5 -3 -10 5 -5 8 -10 20 -10 25 0 6 5 3 10
-5 5 -8 10 -19 10 -25z m-3794 -42 c20 -27 16 -38 -6 -18 -20 18 -26 35 -14
35 4 0 13 -8 20 -17z m789 -4 c10 -30 2 -32 -12 -3 -6 13 -7 24 -3 24 5 0 12
-9 15 -21z m-227 -202 c55 -108 94 -192 87 -187 -7 6 -27 39 -46 75 -18 35
-36 63 -41 62 -5 -1 -26 43 -48 98 -21 55 -44 108 -50 117 -10 18 -14 46 -5
37 2 -3 49 -94 103 -202z m12 181 c0 -12 3 -18 7 -15 6 7 65 -101 78 -145 7
-22 7 -22 -12 2 -11 14 -23 33 -26 43 -4 10 -11 16 -16 12 -13 -7 -31 27 -36
68 -2 17 -9 33 -15 35 -15 5 -12 22 5 22 9 0 15 -9 15 -22z m130 -28 c20 -40
21 -43 4 -30 -28 22 -34 32 -34 59 0 29 2 28 30 -29z m-2475 -50 c3 -5 1 -10
-4 -10 -6 0 -11 5 -11 10 0 6 2 10 4 10 3 0 8 -4 11 -10z m5762 -12 c-3 -8 -6
-5 -6 6 -1 11 2 17 5 13 3 -3 4 -12 1 -19z m-2762 -75 c-25 -115 -26 -118 -36
-102 -12 19 -11 99 1 99 6 0 10 5 10 10 0 19 30 83 36 77 3 -3 -2 -41 -11 -84z
m2155 47 c0 -5 -2 -10 -4 -10 -3 0 -8 5 -11 10 -3 6 -1 10 4 10 6 0 11 -4 11
-10z m-420 -45 c9 -8 21 -15 26 -15 5 -1 22 -11 38 -24 28 -23 28 -25 29 -137
1 -99 -1 -114 -16 -117 -30 -6 -66 30 -67 65 0 17 -4 35 -10 38 -5 3 -10 17
-10 31 0 13 -4 24 -10 24 -5 0 -10 14 -10 30 0 17 -12 54 -26 82 l-26 51 33
-7 c18 -3 40 -13 49 -21z m-2510 -11 c0 -8 -4 -12 -10 -9 -5 3 -10 10 -10 16
0 5 5 9 10 9 6 0 10 -7 10 -16z m1239 -53 c-35 -26 -88 -74 -118 -105 -29 -32
-55 -55 -58 -52 -7 7 124 136 176 174 70 51 70 37 0 -17z m-1210 -31 c0 -10
-3 -8 -9 5 -12 27 -12 43 0 25 5 -8 9 -22 9 -30z m790 -20 c-5 -17 -14 -45
-20 -62 -6 -18 -13 -44 -16 -58 -3 -14 -13 -33 -22 -43 -15 -18 -34 -73 -50
-147 -6 -30 -8 -32 -14 -14 -5 13 0 38 11 65 10 24 25 65 33 92 7 26 16 47 20
47 5 0 27 63 35 100 7 35 18 59 24 55 5 -3 4 -19 -1 -35z m-99 1 c0 -9 -7 -26
-15 -37 -14 -19 -14 -19 -15 1 0 32 12 65 21 59 5 -3 9 -13 9 -23z m166 7
c-12 -40 -17 -50 -22 -46 -5 6 13 58 20 58 3 0 4 -6 2 -12z m1993 -18 c43 -23
61 -68 60 -155 0 -44 -4 -107 -8 -140 -5 -36 -4 -65 1 -72 7 -8 5 -18 -6 -29
-15 -15 -19 -15 -34 -1 -9 8 -35 24 -57 35 l-40 20 7 158 c4 88 5 171 2 186
-5 26 -4 27 24 19 16 -5 39 -14 51 -21z m1151 22 c0 -17 -38 -44 -45 -32 -4 6
1 18 11 25 22 16 34 19 34 7z m-3948 -77 c33 -58 34 -63 13 -47 -13 9 -32 35
-42 57 -9 22 -19 43 -21 48 -2 4 0 7 5 7 5 0 25 -29 45 -65z m3401 -2 c28 -92
39 -140 35 -164 -5 -29 -10 -19 -33 76 -9 39 -20 85 -25 103 -13 50 7 38 23
-15z m-5778 -3 c-3 -5 -8 -20 -10 -31 -5 -24 -13 -35 -20 -27 -8 8 16 68 27
68 5 0 6 -4 3 -10z m3144 -67 c-10 -43 -18 -86 -19 -96 0 -10 -8 -27 -19 -38
-10 -11 -21 -37 -25 -58 -3 -21 -13 -53 -21 -72 l-16 -34 5 30 c15 96 91 345
105 345 5 0 0 -35 -10 -77z m-2699 57 c0 -5 11 -12 24 -16 28 -7 37 -23 29
-52 -6 -24 -43 -37 -43 -16 0 7 -11 16 -25 20 -14 3 -25 7 -25 9 0 1 5 16 11
34 10 29 29 43 29 21z m1855 -37 c9 -20 14 -41 11 -47 -3 -11 -15 13 -30 62
-12 36 2 25 19 -15z m3935 27 c0 -5 -2 -10 -4 -10 -2 0 -12 -3 -20 -6 -12 -5
-15 -2 -10 10 7 17 34 22 34 6z m70 -60 c9 -16 8 -18 -5 -14 -8 4 -15 1 -15
-5 0 -6 -6 -11 -14 -11 -9 0 -12 8 -8 25 5 30 27 33 42 5z m-5710 0 c0 -5 -4
-10 -10 -10 -5 0 -10 5 -10 10 0 6 5 10 10 10 6 0 10 -4 10 -10z m1827 -12
c-3 -8 -6 -5 -6 6 -1 11 2 17 5 13 3 -3 4 -12 1 -19z m905 0 c-7 -7 -12 -8
-12 -2 0 14 12 26 19 19 2 -3 -1 -11 -7 -17z m-2869 -79 c1 -35 -2 -54 -10
-56 -7 -3 -13 -13 -13 -23 0 -9 -7 -23 -15 -30 -8 -7 -15 -19 -15 -27 0 -18
-20 -12 -34 10 -8 12 -5 22 13 41 16 17 25 41 29 76 2 27 8 50 13 50 5 0 9 10
9 23 1 45 21 -11 23 -64z m2838 38 c-10 -9 -11 -8 -5 6 3 10 9 15 12 12 3 -3
0 -11 -7 -18z m-3204 -19 c-3 -8 -6 -5 -6 6 -1 11 2 17 5 13 3 -3 4 -12 1 -19z
m2367 6 c3 -8 2 -12 -4 -9 -6 3 -10 10 -10 16 0 14 7 11 14 -7z m-1932 -19
c-2 -14 -8 -25 -13 -25 -12 0 -11 7 1 31 14 26 18 24 12 -6z m-42 11 c0 -3 -4
-8 -10 -11 -5 -3 -10 -1 -10 4 0 6 5 11 10 11 6 0 10 -2 10 -4z m5720 -16 c0
-11 -7 -20 -15 -20 -18 0 -19 12 -3 28 16 16 18 15 18 -8z m-3820 -54 c0 -6
-7 2 -15 18 -8 15 -15 33 -15 40 0 6 7 -2 15 -18 8 -15 15 -33 15 -40z m-93
-29 c-2 -7 -12 5 -21 27 -22 54 -19 69 5 23 11 -21 18 -44 16 -50z m952 34
c-12 -23 -24 -39 -27 -37 -2 2 7 22 20 44 12 23 24 39 26 37 2 -2 -6 -22 -19
-44z m-1050 -21 c11 -24 11 -24 -3 -6 -9 11 -16 24 -16 30 0 12 5 7 19 -24z
m-913 5 c14 -13 14 -16 -1 -22 -10 -3 -29 -17 -43 -29 -31 -30 -39 -30 -44 0
-5 24 12 47 43 59 23 9 30 8 45 -8z m-926 1 c0 -3 -4 -8 -10 -11 -5 -3 -10 -1
-10 4 0 6 5 11 10 11 6 0 10 -2 10 -4z m125 -41 c-9 -20 -18 -35 -21 -32 -3 2
3 21 12 41 23 47 29 40 9 -9z m32 23 c-3 -8 -6 -5 -6 6 -1 11 2 17 5 13 3 -3
4 -12 1 -19z m179 -18 c8 0 14 -10 14 -25 0 -18 -4 -23 -15 -19 -8 4 -15 9
-15 13 0 3 -3 17 -5 31 -3 14 -3 19 1 13 3 -7 12 -13 20 -13z m1621 -2 c-3 -8
-6 -5 -6 6 -1 11 2 17 5 13 3 -3 4 -12 1 -19z m-75 -87 c-6 -16 -32 43 -32 73
0 15 6 10 19 -19 10 -22 16 -46 13 -54z m303 59 c3 -5 1 -10 -4 -10 -6 0 -11
5 -11 10 0 6 2 10 4 10 3 0 8 -4 11 -10z m658 -5 c-3 -9 -8 -14 -10 -11 -3 3
-2 9 2 15 9 16 15 13 8 -4z m-3277 -51 c-4 -9 -9 -15 -11 -12 -3 3 -3 13 1 22
4 9 9 15 11 12 3 -3 3 -13 -1 -22z m464 17 c0 -5 -7 -12 -16 -15 -14 -5 -15
-4 -4 9 14 17 20 19 20 6z"/>
<path d="M190 7093 c0 -13 5 -23 10 -23 13 0 13 11 0 30 -8 12 -10 11 -10 -7z"/>
<path d="M2830 2750 c0 -11 5 -20 10 -20 6 0 10 9 10 20 0 11 -4 20 -10 20 -5
0 -10 -9 -10 -20z"/>
<path d="M960 975 c-1 -5 -3 -29 -4 -53 -1 -36 1 -40 12 -25 6 9 12 24 11 32
-1 21 -17 59 -19 46z"/>
<path d="M1360 7556 c0 -8 5 -18 10 -21 6 -3 10 3 10 14 0 12 -4 21 -10 21 -5
0 -10 -6 -10 -14z"/>
<path d="M1365 7507 c-4 -10 -5 -21 -1 -24 10 -10 18 4 13 24 -4 17 -4 17 -12
0z"/>
<path d="M6037 6538 c-4 -12 -4 -24 -2 -27 3 -2 5 1 5 7 0 7 7 12 15 12 8 0
15 7 15 15 0 23 -27 18 -33 -7z"/>
<path d="M1334 6499 c-3 -6 -1 -16 5 -22 8 -8 11 -5 11 11 0 24 -5 28 -16 11z"/>
<path d="M1330 6414 c0 -11 -5 -25 -12 -32 -9 -9 -9 -15 -1 -23 9 -9 13 -2 19
25 3 20 4 40 0 43 -3 4 -6 -3 -6 -13z"/>
<path d="M5633 6305 c-6 -11 -14 -37 -18 -56 -5 -28 -3 -38 10 -42 10 -5 14
-3 9 4 -4 6 -1 15 5 19 8 4 11 25 9 51 -3 39 -4 42 -15 24z"/>
<path d="M5427 5973 c-11 -10 -8 -53 3 -53 6 0 10 14 10 30 0 31 -2 35 -13 23z"/>
<path d="M5450 5954 c0 -8 5 -12 10 -9 6 4 8 11 5 16 -9 14 -15 11 -15 -7z"/>
<path d="M5446 5915 c-9 -26 -7 -32 5 -12 6 10 9 21 6 23 -2 3 -7 -2 -11 -11z"/>
<path d="M3235 5312 c-28 -11 -78 -16 -167 -17 -85 -1 -131 -5 -141 -14 -12
-9 -21 -10 -37 -1 -11 6 -35 10 -53 8 -28 -3 -32 -7 -32 -32 0 -17 -6 -31 -15
-33 -43 -12 -43 -12 -27 -36 19 -29 33 -127 18 -127 -6 0 -13 -11 -17 -25 -4
-16 -15 -27 -30 -30 -13 -3 -35 -7 -49 -10 -20 -4 -25 -2 -25 16 0 17 -3 19
-14 10 -34 -28 14 -71 65 -58 13 3 28 -2 40 -14 10 -10 23 -19 29 -19 5 0 13
-15 18 -32 5 -18 21 -51 36 -73 15 -22 30 -51 33 -65 5 -25 51 -60 79 -60 16
0 21 -86 4 -92 -5 -1 -7 -12 -4 -24 4 -16 11 -20 30 -16 13 2 21 8 18 13 -10
16 37 9 64 -9 84 -56 270 -96 321 -68 20 11 21 14 6 20 -9 3 -21 4 -26 1 -5
-4 -35 -1 -66 5 -32 7 -73 13 -91 15 -17 2 -45 14 -61 27 -15 13 -37 28 -47
34 -11 7 -16 15 -11 20 4 4 12 3 18 -3 6 -6 19 -8 30 -6 15 4 17 11 12 31 l-6
25 69 -8 c98 -12 166 -14 185 -4 8 4 24 26 34 48 10 23 22 41 27 41 11 0 10
-17 -1 -22 -5 -1 -13 -16 -16 -31 -7 -26 -6 -28 19 -21 20 5 26 2 26 -10 0
-19 11 -21 28 -4 6 6 44 14 84 17 64 5 73 8 74 26 2 41 5 46 29 57 14 6 24 15
23 18 -2 4 -25 26 -53 49 -27 23 -59 50 -70 60 -11 10 -32 21 -47 25 -16 3
-28 11 -28 16 0 6 -13 10 -29 10 -17 0 -67 9 -113 21 -46 11 -99 24 -118 28
-19 4 -34 13 -32 19 1 7 -3 12 -10 12 -6 0 -4 8 7 20 10 11 37 22 64 25 25 4
78 13 116 22 80 17 275 26 275 12 0 -5 -7 -9 -15 -9 -8 0 -15 -9 -15 -20 0
-17 7 -20 44 -20 25 0 48 -4 51 -10 9 -15 31 -12 49 6 9 8 16 11 16 5 0 -6 11
-11 25 -11 27 0 35 24 11 33 -9 4 -12 14 -9 26 4 15 -1 22 -20 26 -13 4 -30
18 -36 31 -14 32 -14 34 4 34 26 0 16 18 -17 31 -18 6 -46 17 -63 24 -68 26
-95 41 -95 52 0 20 -76 17 -84 -3 -3 -8 -11 -12 -17 -8 -8 4 -7 9 2 16 9 6 -4
7 -36 4 -53 -6 -68 -7 -112 -3 -16 1 -42 -2 -59 -5 -28 -6 -31 -5 -27 12 3 11
4 19 2 19 -2 -1 -22 -8 -44 -17z m55 -401 c0 -11 -59 -20 -66 -10 -2 4 10 10
28 12 18 2 34 5 36 5 1 1 2 -2 2 -7z m139 -13 c37 -13 81 -38 105 -60 l41 -38
-44 15 c-24 8 -51 15 -60 15 -9 0 -23 6 -29 12 -7 7 -41 22 -74 33 -34 11 -64
26 -66 33 -6 20 56 15 127 -10z m-249 -18 c-20 -13 -33 -13 -25 0 3 6 14 10
23 10 15 0 15 -2 2 -10z m-2 -139 c12 -21 22 -44 22 -51 0 -20 -62 -3 -89 25
-24 24 -24 25 -6 45 27 30 49 25 73 -19z m-145 -108 c-7 -2 -19 -2 -25 0 -7 3
-2 5 12 5 14 0 19 -2 13 -5z"/>
<path d="M2611 5024 c0 -11 3 -14 6 -6 3 7 2 16 -1 19 -3 4 -6 -2 -5 -13z"/>
<path d="M3805 5010 c-3 -5 -1 -10 4 -10 6 0 11 5 11 10 0 6 -2 10 -4 10 -3 0
-8 -4 -11 -10z"/>
<path d="M4245 4790 c-3 -11 -10 -20 -15 -20 -4 0 -11 -12 -14 -26 -5 -18 3
-49 24 -99 16 -41 30 -85 30 -98 0 -20 4 -24 19 -20 27 7 33 89 14 183 -19 95
-43 128 -58 80z"/>
<path d="M5810 4656 c0 -9 5 -16 10 -16 6 0 10 4 10 9 0 6 -4 13 -10 16 -5 3
-10 -1 -10 -9z"/>
<path d="M3180 4634 c0 -3 6 -12 14 -20 16 -15 32 -2 21 16 -7 11 -35 14 -35
4z"/>
<path d="M5823 4560 c0 -36 2 -50 4 -32 2 17 2 47 0 65 -2 17 -4 3 -4 -33z"/>
<path d="M6000 4505 c-1 -11 -4 -15 -7 -7 -8 19 -23 14 -23 -8 0 -22 7 -25 28
-11 8 5 12 17 9 27 -4 18 -5 18 -7 -1z"/>
<path d="M5420 4141 c0 -11 4 -21 9 -21 18 0 21 18 6 30 -13 10 -15 9 -15 -9z"/>
<path d="M5470 4130 c14 -9 78 -15 69 -6 -2 2 -22 7 -44 10 -28 4 -36 3 -25
-4z"/>
<path d="M4247 4114 c-14 -14 -7 -82 8 -88 8 -3 15 -16 15 -28 0 -13 4 -30 9
-38 6 -9 9 12 7 59 -3 69 -21 113 -39 95z"/>
<path d="M6276 3774 c-10 -25 -7 -34 9 -28 8 4 15 15 15 25 0 23 -16 25 -24 3z"/>
<path d="M6243 3684 c-7 -18 13 -67 25 -60 6 4 7 26 3 69 -2 13 -22 7 -28 -9z"/>
<path d="M5840 3010 c0 -5 9 -10 21 -10 11 0 17 5 14 10 -3 6 -13 10 -21 10
-8 0 -14 -4 -14 -10z"/>
<path d="M6030 3006 c0 -9 5 -16 10 -16 6 0 10 4 10 9 0 6 -4 13 -10 16 -5 3
-10 -1 -10 -9z"/>
<path d="M6440 2049 c0 -6 9 -22 20 -36 l20 -26 0 26 c0 16 -8 31 -20 37 -15
8 -20 8 -20 -1z"/>
<path d="M28 1824 c24 -17 39 -14 27 5 -3 6 -16 11 -28 11 l-21 0 22 -16z"/>
<path d="M6140 1661 c0 -11 31 -24 39 -16 3 3 -1 10 -9 15 -19 12 -30 12 -30
1z"/>
<path d="M4501 627 c-26 -55 -55 -92 -118 -155 -73 -73 -83 -87 -83 -118 0
-20 3 -34 8 -32 124 54 272 200 272 267 0 18 -36 111 -42 111 -2 0 -18 -33
-37 -73z"/>
<path d="M3913 548 c-65 -18 -72 -22 -68 -42 5 -18 -4 -26 -54 -52 -57 -29
-60 -30 -68 -11 -8 17 -13 15 -66 -29 -64 -54 -79 -83 -18 -35 42 33 57 38 63
19 3 -8 29 2 75 30 39 24 81 44 93 45 17 1 20 6 16 23 -6 21 6 31 44 39 48 10
70 18 70 26 0 12 -1 11 -87 -13z"/>
<path d="M4068 563 c7 -3 16 -2 19 1 4 3 -2 6 -13 5 -11 0 -14 -3 -6 -6z"/>
<path d="M4160 560 c0 -7 24 -20 36 -20 13 0 1 19 -16 23 -11 3 -20 2 -20 -3z"/>
<path d="M4500 431 c-48 -49 -97 -87 -135 -106 -33 -16 -62 -31 -63 -32 -2 -1
-7 -18 -12 -37 -7 -31 -5 -36 11 -36 58 0 223 85 278 144 21 22 23 32 18 71
-11 79 -15 79 -97 -4z"/>
<path d="M4213 441 c-33 -27 -45 -71 -20 -71 6 0 27 9 45 20 26 16 33 26 30
47 -4 36 -17 37 -55 4z"/>
<path d="M4132 387 c-5 -6 -12 -37 -15 -68 -12 -121 -108 -246 -221 -284 -31
-11 -56 -23 -56 -27 0 -4 22 -8 49 -8 102 0 219 120 257 265 23 85 15 158 -14
122z"/>
<path d="M4223 357 c-33 -16 -43 -27 -43 -45 0 -21 3 -23 33 -17 65 13 67 15
67 51 0 39 -1 40 -57 11z"/>
<path d="M4020 340 c0 -26 -49 -122 -73 -143 -17 -15 -32 -18 -69 -14 -59 5
-82 21 -67 49 22 42 1 36 -63 -17 -37 -31 -70 -65 -73 -76 -8 -25 23 -61 66
-79 21 -9 29 -19 29 -36 0 -19 5 -24 25 -24 17 0 25 5 25 18 0 12 14 22 48 31
80 24 116 52 183 142 26 34 57 144 44 157 -4 4 -22 7 -41 7 -23 0 -34 -5 -34
-15z"/>
<path d="M4550 306 c-32 -31 -142 -85 -208 -102 -62 -16 -71 -21 -81 -49 -16
-44 -15 -45 22 -45 93 0 274 61 288 97 10 25 11 113 1 113 -4 0 -14 -6 -22
-14z"/>
<path d="M3495 241 c-38 -57 -46 -74 -35 -81 11 -7 9 -20 -11 -72 -21 -51 -29
-63 -47 -62 -12 0 -22 -5 -22 -13 0 -8 12 -13 30 -13 19 0 30 5 30 14 0 8 17
48 38 89 31 61 35 77 23 84 -12 8 -12 12 0 33 8 14 19 28 24 32 6 5 6 8 1 8
-6 0 -2 6 8 13 11 8 17 20 14 27 -2 8 -25 -17 -53 -59z"/>
<path d="M4214 271 c-41 -10 -51 -17 -57 -41 -5 -18 0 -20 44 -20 49 0 69 15
69 54 0 17 -8 18 -56 7z"/>
<path d="M4130 161 c-14 -30 -11 -32 44 -38 42 -5 45 -4 60 26 9 17 15 31 14
31 -2 1 -26 2 -55 3 -46 2 -53 0 -63 -22z"/>
<path d="M4445 115 c-47 -16 -94 -24 -142 -24 -67 -1 -73 -3 -92 -30 -27 -37
-26 -47 2 -55 35 -9 233 -7 260 3 18 7 31 26 46 66 12 31 21 58 21 60 0 9 -24
3 -95 -20z"/>
<path d="M4082 90 c-16 -27 -16 -29 13 -40 61 -23 69 -22 88 9 l17 30 -37 10
c-54 15 -66 14 -81 -9z"/>
<path d="M3632 88 c-5 -7 -13 -23 -16 -35 -9 -29 9 -30 44 -4 20 16 22 21 11
35 -16 19 -25 20 -39 4z"/>
<path d="M4031 34 c-36 -25 -24 -34 46 -34 72 0 74 4 14 31 -35 15 -41 16 -60
3z"/>
</g>
</svg>
